<svg width="100" height="100" viewBox="0 0 100 100" fill="none" xmlns="http://www.w3.org/2000/svg">
<path d="M93.5859 44.1797L55.8203 6.41406C54.2188 4.80469 52.1094 4 50 4C47.8906 4 45.7812 4.80469 44.1797 6.41406L36.7109 13.8828L45.9531 23.125C49.0234 21.3203 53.0234 21.7109 55.6562 24.3438C58.2891 26.9766 58.6719 30.9766 56.8672 34.0391L65.9531 43.125C69.0234 41.3203 73.0234 41.7109 75.6562 44.3438C78.7812 47.4688 78.7812 52.5312 75.6562 55.6562C72.5312 58.7812 67.4688 58.7812 64.3438 55.6562C61.7109 53.0234 61.3203 49.0234 63.125 45.9531L54.0391 36.8672C53.3906 37.25 52.7109 37.5312 52 37.7109V62.2812C55.4453 63.1719 58 66.2734 58 70C58 74.4219 54.4219 78 50 78C45.5781 78 42 74.4219 42 70C42 66.2734 44.5547 63.1719 48 62.2812V37.7109C46.6641 37.3672 45.3906 36.7031 44.3438 35.6562C41.7109 33.0234 41.3281 29.0234 43.1328 25.9609L33.8828 16.7109L6.41406 44.1797C3.19531 47.3906 3.19531 52.6094 6.41406 55.8203L44.1797 93.5859C45.7812 95.1953 47.8906 96 50 96C52.1094 96 54.2188 95.1953 55.8203 93.5859L93.5859 55.8203C96.8047 52.6094 96.8047 47.3906 93.5859 44.1797Z" fill="#EB5757"/>
</svg>
