<svg width="50" height="50" viewBox="0 0 50 50" fill="none" xmlns="http://www.w3.org/2000/svg">
<path d="M22.2143 0.175005C10.6995 1.43921 1.43761 10.7944 0.186003 22.1722C-1.31593 34.8143 6.44404 45.6865 17.4582 49.2263V43.411C17.4582 43.411 16.4569 43.6638 15.2053 43.6638C11.7008 43.6638 10.1989 40.6297 9.94854 38.8598C9.69822 37.8484 9.19758 37.0899 8.44662 36.3314C7.69565 36.0785 7.44533 36.0785 7.44533 35.8257C7.44533 35.32 8.19629 35.32 8.44662 35.32C9.94854 35.32 11.2002 37.0899 11.7008 37.8484C12.9524 39.8712 14.4543 40.3769 15.2053 40.3769C16.2066 40.3769 16.9575 40.124 17.4582 39.8712C17.7085 38.1013 18.4595 36.3314 19.9614 35.32C14.204 34.0558 9.94854 30.7689 9.94854 25.2063C9.94854 22.4251 11.2002 19.6438 12.9524 17.6211C12.7021 17.1154 12.4518 15.8512 12.4518 14.0813C12.4518 13.0699 12.4518 11.5529 13.2027 10.0358C13.2027 10.0358 16.7072 10.0358 20.2117 13.3228C21.4633 12.8171 23.2156 12.5643 24.9678 12.5643C26.7201 12.5643 28.4723 12.8171 29.9743 13.3228C33.2285 10.0358 36.9833 10.0358 36.9833 10.0358C37.4839 11.5529 37.4839 13.0699 37.4839 14.0813C37.4839 16.104 37.2336 17.1154 36.9833 17.6211C38.7355 19.6438 39.9871 22.1722 39.9871 25.2063C39.9871 30.7689 35.7317 34.0558 29.9743 35.32C31.4762 36.5842 32.4775 38.8598 32.4775 41.1354V49.4792C42.7407 46.1922 50 36.5842 50 25.4592C50 10.2887 37.2336 -1.59489 22.2143 0.175005Z" fill="#EEEEEE"/>
</svg>
