<svg width="50" height="50" viewBox="0 0 50 50" fill="none" xmlns="http://www.w3.org/2000/svg">
<path d="M13.8889 0C6.21944 0 0 6.21944 0 13.8889V36.1111C0 43.7806 6.21944 50 13.8889 50H36.1111C43.7806 50 50 43.7806 50 36.1111V13.8889C50 6.21944 43.7806 0 36.1111 0H13.8889ZM41.6667 5.55556C43.2 5.55556 44.4444 6.8 44.4444 8.33333C44.4444 9.86667 43.2 11.1111 41.6667 11.1111C40.1333 11.1111 38.8889 9.86667 38.8889 8.33333C38.8889 6.8 40.1333 5.55556 41.6667 5.55556ZM25 11.1111C32.6694 11.1111 38.8889 17.3306 38.8889 25C38.8889 32.6694 32.6694 38.8889 25 38.8889C17.3306 38.8889 11.1111 32.6694 11.1111 25C11.1111 17.3306 17.3306 11.1111 25 11.1111ZM25 16.6667C22.7899 16.6667 20.6702 17.5446 19.1074 19.1074C17.5446 20.6702 16.6667 22.7899 16.6667 25C16.6667 27.2101 17.5446 29.3298 19.1074 30.8926C20.6702 32.4554 22.7899 33.3333 25 33.3333C27.2101 33.3333 29.3298 32.4554 30.8926 30.8926C32.4554 29.3298 33.3333 27.2101 33.3333 25C33.3333 22.7899 32.4554 20.6702 30.8926 19.1074C29.3298 17.5446 27.2101 16.6667 25 16.6667Z" fill="#EEEEEE"/>
</svg>
