<svg width="100" height="100" viewBox="0 0 100 100" fill="none" xmlns="http://www.w3.org/2000/svg">
<path d="M50 99.2188C48.6914 99.2188 47.3633 98.8672 46.2109 98.2031L34.1602 91.0742C32.3633 90.0586 33.2422 89.707 33.8281 89.5117C36.2305 88.6719 36.7188 88.4961 39.2773 87.0312C39.5508 86.875 39.9023 86.9336 40.1758 87.1094L49.4336 92.5977C49.7656 92.793 50.2344 92.793 50.5469 92.5977L86.6211 71.7773C86.9531 71.582 87.168 71.1914 87.168 70.8008V29.1602C87.168 28.75 86.9531 28.3789 86.6016 28.1641L50.5469 7.36328C50.2148 7.16797 49.7656 7.16797 49.4336 7.36328L13.3984 28.1836C13.0469 28.3789 12.832 28.7695 12.832 29.1797V70.8008C12.832 71.1914 13.0469 71.582 13.3984 71.7578L23.2812 77.4609C28.6523 80.1367 31.9336 76.9922 31.9336 73.8086V32.7148C31.9336 32.1289 32.4023 31.6797 32.9883 31.6797H37.5586C38.125 31.6797 38.6133 32.1289 38.6133 32.7148V73.8281C38.6133 80.9766 34.707 85.0781 27.9297 85.0781C25.8398 85.0781 24.1992 85.0781 19.6289 82.8125L10.1758 77.3633C7.83203 76.0156 6.38672 73.4961 6.38672 70.7812V29.1602C6.38672 26.4648 7.83203 23.9258 10.1758 22.5781L46.2109 1.75781C48.4961 0.46875 51.5234 0.46875 53.7891 1.75781L89.8633 22.5977C92.207 23.9453 93.6523 26.4648 93.6523 29.1797V70.8008C93.6523 73.4961 92.207 76.0156 89.8633 77.3828L53.7891 98.2031C52.6367 98.8672 51.3281 99.2188 50 99.2188ZM79.1211 58.1836C79.1211 50.3906 73.8477 48.3203 62.7734 46.8555C51.5625 45.3711 50.4297 44.6094 50.4297 41.9922C50.4297 39.8242 51.3867 36.9336 59.6875 36.9336C67.0898 36.9336 69.8242 38.5352 70.957 43.5352C71.0547 44.0039 71.4844 44.3555 71.9727 44.3555H76.6602C76.9531 44.3555 77.2266 44.2383 77.4219 44.0234C77.6172 43.8086 77.7148 43.5156 77.6953 43.2227C76.9726 34.6094 71.25 30.6055 59.6875 30.6055C49.3945 30.6055 43.2617 34.9414 43.2617 42.2266C43.2617 50.1172 49.375 52.3047 59.2383 53.2812C71.0547 54.4336 71.9727 56.1719 71.9727 58.4961C71.9727 62.5195 68.7305 64.2383 61.1328 64.2383C51.582 64.2383 49.4922 61.8359 48.7891 57.0898C48.7109 56.582 48.2812 56.2109 47.7539 56.2109H43.0859C42.5 56.2109 42.0508 56.6797 42.0508 57.2461C42.0508 63.3203 45.3516 70.5664 61.1523 70.5664C72.5586 70.5469 79.1211 66.0352 79.1211 58.1836Z" fill="#27AE60"/>
</svg>
