<svg width="100" height="100" viewBox="0 0 100 100" fill="none" xmlns="http://www.w3.org/2000/svg">
<path d="M81.6797 34.3569C80.625 34.0054 79.5703 33.6733 78.5156 33.3608C78.6914 32.6382 78.8477 31.9155 79.0039 31.1929C81.4062 19.5522 79.8242 10.1968 74.4922 7.11084C69.3555 4.16162 60.9766 7.22803 52.5 14.6108C51.6602 15.3335 50.8398 16.0952 50.0586 16.8569C49.5312 16.3491 48.9844 15.8413 48.4375 15.353C39.5508 7.4624 30.6445 4.14209 25.3125 7.24756C20.1953 10.2163 18.6719 19.0249 20.8203 30.0405C21.0352 31.1343 21.2695 32.2085 21.543 33.3022C20.293 33.6538 19.0625 34.0444 17.9102 34.4546C7.48047 38.0679 0 43.771 0 49.6694C0 55.7632 7.96875 61.8765 18.8086 65.5874C19.6875 65.8804 20.5664 66.1733 21.4648 66.4272C21.1719 67.5991 20.918 68.7515 20.6836 69.9429C18.6328 80.7827 20.2344 89.3765 25.3516 92.3257C30.625 95.3726 39.4922 92.2476 48.125 84.689C48.8086 84.0835 49.4922 83.4585 50.1758 82.7944C51.0352 83.6343 51.9336 84.4351 52.832 85.2163C61.1914 92.4038 69.4531 95.314 74.5508 92.3648C79.8242 89.3179 81.543 80.0796 79.3164 68.8296C79.1406 67.9702 78.9453 67.0913 78.7305 66.1929C79.3555 66.0171 79.9609 65.8218 80.5664 65.6265C91.8359 61.896 100 55.8608 100 49.6694C100 43.7515 92.3047 38.0093 81.6797 34.3569ZM55.2539 17.7749C62.5195 11.4468 69.2969 8.96631 72.3828 10.7437C75.6836 12.6382 76.9531 20.2944 74.8828 30.353C74.7461 31.0171 74.6094 31.6616 74.4336 32.3062C70.0977 31.3296 65.7031 30.6265 61.2891 30.2358C58.75 26.603 55.9766 23.1265 52.9688 19.8647C53.7305 19.1421 54.4727 18.4585 55.2539 17.7749ZM32.6562 59.8062C33.6523 61.5054 34.668 63.2046 35.7422 64.8647C32.6953 64.5327 29.668 64.0444 26.6797 63.3999C27.5391 60.5874 28.6133 57.6772 29.8633 54.7085C30.7617 56.4272 31.6797 58.1265 32.6562 59.8062ZM26.7383 36.3101C29.5508 35.6851 32.5391 35.1772 35.6445 34.7866C34.6094 36.4077 33.5938 38.0679 32.6367 39.7476C31.6797 41.4077 30.7422 43.1069 29.8633 44.8257C28.6328 41.9155 27.5977 39.064 26.7383 36.3101ZM32.0898 49.7671C33.3789 47.0718 34.7852 44.4351 36.2695 41.8374C37.7539 39.2397 39.3555 36.7202 41.0352 34.2397C43.9648 34.0249 46.9531 33.9077 50 33.9077C53.0469 33.9077 56.0547 34.0249 58.9648 34.2397C60.625 36.7007 62.207 39.2202 63.7109 41.7983C65.2148 44.3765 66.6211 47.0132 67.9492 49.689C66.6406 52.3843 65.2344 55.0405 63.7305 57.6577C62.2461 60.2554 60.6641 62.7749 59.0039 65.2749C56.0938 65.4897 53.0664 65.5874 50 65.5874C46.9336 65.5874 43.9648 65.4897 41.0938 65.314C39.3945 62.8335 37.793 60.2944 36.2891 57.6968C34.7852 55.0991 33.3984 52.4624 32.0898 49.7671ZM67.3633 59.7671C68.3594 58.0483 69.2969 56.3101 70.2148 54.5522C71.4648 57.3843 72.5586 60.2554 73.5156 63.2046C70.4883 63.8882 67.4219 64.4155 64.3359 64.7671C65.3906 63.1265 66.3867 61.4468 67.3633 59.7671ZM70.1758 44.8257C69.2578 43.1069 68.3203 41.3882 67.3438 39.7085C66.3867 38.0483 65.3906 36.4077 64.3555 34.7866C67.5 35.1772 70.5078 35.7046 73.3203 36.3491C72.4219 39.2397 71.3672 42.0522 70.1758 44.8257ZM50.0391 22.853C52.0898 25.0796 54.0234 27.4233 55.8203 29.8452C51.9531 29.6694 48.0664 29.6694 44.1992 29.8452C46.1133 27.3257 48.0859 24.9819 50.0391 22.853ZM27.3828 10.8804C30.6641 8.96631 37.9492 11.7007 45.625 18.4976C46.1133 18.9272 46.6016 19.396 47.1094 19.8647C44.082 23.1265 41.2891 26.603 38.7305 30.2358C34.3164 30.6265 29.9414 31.3101 25.6055 32.2671C25.3516 31.271 25.1367 30.2554 24.9219 29.2397C23.0859 19.7866 24.2969 12.6577 27.3828 10.8804ZM22.5977 62.3647C21.7773 62.1304 20.9766 61.8765 20.1758 61.603C16.0156 60.2944 11.2891 58.2241 7.87109 55.5093C5.89844 54.1421 4.57031 52.0327 4.19922 49.6694C4.19922 46.0952 10.3711 41.5249 19.2773 38.4194C20.3906 38.0288 21.5234 37.6772 22.6562 37.3452C23.9844 41.5835 25.5859 45.7437 27.4414 49.7671C25.5664 53.8491 23.9453 58.0679 22.5977 62.3647ZM45.3711 81.5054C42.1484 84.4546 38.418 86.7983 34.3555 88.3999C32.1875 89.4351 29.6875 89.5327 27.4609 88.6538C24.3555 86.8569 23.0664 79.9624 24.8242 70.6851C25.0391 69.5913 25.2734 68.4976 25.5469 67.4233C29.9219 68.3608 34.3359 69.0054 38.8086 69.3374C41.3867 72.9897 44.2188 76.4858 47.2461 79.7671C46.6211 80.3726 45.9961 80.9585 45.3711 81.5054ZM50.1562 76.7593C48.1641 74.6108 46.1719 72.228 44.2383 69.6694C46.1133 69.7476 48.0469 69.7866 50 69.7866C52.0117 69.7866 53.9844 69.7476 55.9375 69.6499C54.1406 72.1304 52.207 74.4937 50.1562 76.7593ZM75.6836 82.6187C75.5078 85.0015 74.3359 87.228 72.4609 88.7319C69.3555 90.5288 62.7344 88.1851 55.5859 82.0522C54.7656 81.3491 53.9453 80.5874 53.1055 79.8062C56.0938 76.5054 58.8477 73.0093 61.3477 69.3374C65.8203 68.9663 70.2734 68.2827 74.668 67.2866C74.8633 68.0874 75.0391 68.8882 75.1953 69.6694C76.1523 73.8882 76.3086 78.2827 75.6836 82.6187ZM79.2383 61.6226C78.6914 61.7983 78.1445 61.9741 77.5781 62.1304C76.2109 57.8726 74.5312 53.7124 72.5977 49.6694C74.4727 45.6851 76.0547 41.5835 77.3828 37.3843C78.3984 37.6772 79.375 37.9897 80.3125 38.3022C89.4141 41.4272 95.8008 46.0757 95.8008 49.6304C95.8008 53.4585 88.9844 58.3999 79.2383 61.6226ZM50 58.6929C54.9414 58.6929 58.9453 54.689 58.9453 49.7476C58.9453 44.8062 54.9414 40.8022 50 40.8022C45.0586 40.8022 41.0547 44.8062 41.0547 49.7476C41.0547 54.689 45.0586 58.6929 50 58.6929Z" fill="#00ADB5"/>
</svg>
