<svg width="50" height="50" viewBox="0 0 50 50" fill="none" xmlns="http://www.w3.org/2000/svg">
<path fill-rule="evenodd" clip-rule="evenodd" d="M10 0C7.23858 0 5 2.23858 5 5V40.4441C5 43.2056 7.23858 45.4441 10 45.4441H24.2642V41.5642C24.2642 38.8028 26.5027 36.5642 29.2642 36.5642H29.6976V31.1173C29.6976 28.3559 31.9362 26.1173 34.6976 26.1173H39.0223C39.0425 26.1173 39.0626 26.1174 39.0828 26.1177V5C39.0828 2.23858 36.8442 0 34.0828 0H10ZM36.1372 29.7737C35.3088 29.7737 34.6372 30.4453 34.6372 31.2737V40.0901H30.712C29.4016 40.0901 28.7212 41.6522 29.6136 42.6117L36.0086 49.4868C36.6019 50.1247 37.612 50.1247 38.2053 49.4868L44.6003 42.6117C45.4927 41.6522 44.8123 40.0901 43.502 40.0901H39.0828V31.2737C39.0828 30.4453 38.4112 29.7737 37.5828 29.7737H36.1372ZM7.96362 19.3267C7.96362 20.315 8.53131 21.2231 9.48037 21.9385H20.2776C21.2266 21.2231 21.7943 20.315 21.7943 19.3267C21.7943 17.0188 18.6982 15.1479 14.879 15.1479C11.0597 15.1479 7.96362 17.0188 7.96362 19.3267ZM10.9274 9.9245C10.9274 7.61663 12.6966 5.74573 14.879 5.74573C17.0614 5.74573 18.8306 7.61663 18.8306 9.9245C18.8306 12.2324 17.0614 14.1033 14.879 14.1033C12.6966 14.1033 10.9274 12.2324 10.9274 9.9245Z" fill="#EEEEEE"/>
</svg>
