<svg width="100" height="100" viewBox="0 0 100 100" fill="none" xmlns="http://www.w3.org/2000/svg">
<g clip-path="url(#clip0)">
<path d="M86.0599 55.604C82.5659 55.622 79.5379 56.462 76.9999 57.712C76.0719 55.86 75.1319 54.23 74.9739 53.018C74.7899 51.604 74.5759 50.76 74.7979 49.074C75.0199 47.388 75.9959 45.002 75.9799 44.824C75.9659 44.646 75.7619 43.788 73.7459 43.772C71.7299 43.758 70.0059 44.16 69.8019 44.692C69.5979 45.224 69.2099 46.422 68.9699 47.672C68.6159 49.5 64.9459 56.02 62.8599 59.43C62.1779 58.098 61.5979 56.926 61.4779 55.998C61.2939 54.584 61.0799 53.74 61.3019 52.054C61.5239 50.368 62.4999 47.982 62.4839 47.804C62.4699 47.626 62.2659 46.768 60.2499 46.752C58.2339 46.738 56.5099 47.14 56.3059 47.672C56.1019 48.204 55.8859 49.448 55.4739 50.652C55.0599 51.856 50.1799 62.73 48.9019 65.548C48.2499 66.984 47.6839 68.138 47.2839 68.926C47.2819 68.924 47.2819 68.922 47.2819 68.922C47.2819 68.922 47.2579 68.974 47.2139 69.064C46.8719 69.734 46.6679 70.106 46.6679 70.106C46.6679 70.106 46.6699 70.112 46.6739 70.12C46.4019 70.612 46.1119 71.07 45.9679 71.07C45.8679 71.07 45.6659 69.758 46.0119 67.96C46.7379 64.188 48.4819 58.304 48.4659 58.102C48.4579 57.998 48.7899 56.974 47.3259 56.436C45.9039 55.916 45.3959 56.784 45.2659 56.786C45.1399 56.788 45.0459 57.092 45.0459 57.092C45.0459 57.092 46.6319 50.476 42.0219 50.476C39.1419 50.476 35.1499 53.628 33.1819 56.484C31.9419 57.16 29.2859 58.61 26.4679 60.158C25.3859 60.752 24.2819 61.36 23.2339 61.938C23.1619 61.86 23.0919 61.78 23.0179 61.702C17.4299 55.74 7.1019 51.524 7.5399 43.51C7.6999 40.596 8.7119 32.924 27.3879 23.618C42.6859 15.994 54.9339 18.092 57.0499 22.742C60.0739 29.384 50.5039 41.73 34.6179 43.51C28.5639 44.188 25.3779 41.842 24.5839 40.968C23.7499 40.048 23.6259 40.006 23.3139 40.18C22.8059 40.462 23.1279 41.274 23.3139 41.758C23.7879 42.992 25.7339 45.182 29.0539 46.27C31.9739 47.228 39.0799 47.754 47.6759 44.43C57.3019 40.706 64.8179 30.348 62.6119 21.69C60.3659 12.884 45.7659 9.99002 31.9479 14.898C23.7239 17.82 14.8219 22.406 8.4199 28.392C0.807897 35.512 -0.404103 41.708 0.095897 44.296C1.8739 53.496 14.5519 59.486 19.6299 63.926C19.3799 64.064 19.1439 64.194 18.9299 64.312C16.3839 65.572 6.7199 70.63 4.3019 75.974C1.5599 82.036 4.7379 86.386 6.8439 86.972C13.3639 88.786 20.0559 85.522 23.6519 80.158C27.2479 74.796 26.8079 67.814 25.1579 64.626C25.1379 64.586 25.1139 64.548 25.0939 64.508C25.7519 64.118 26.4219 63.724 27.0859 63.334C28.3819 62.574 29.6539 61.864 30.7579 61.262C30.1399 62.954 29.6879 64.982 29.4519 67.912C29.1759 71.354 30.5859 75.802 32.4319 77.552C33.2439 78.322 34.2219 78.34 34.8419 78.34C36.9899 78.34 37.9699 76.554 39.0479 74.44C40.3719 71.848 41.5459 68.832 41.5459 68.832C41.5459 68.832 40.0719 76.982 44.0879 76.982C45.5499 76.982 47.0219 75.084 47.6779 74.118C47.6799 74.128 47.6799 74.134 47.6799 74.134C47.6799 74.134 47.7179 74.072 47.7919 73.944C47.9439 73.712 48.0299 73.564 48.0299 73.564C48.0299 73.564 48.0339 73.548 48.0379 73.522C48.6259 72.502 49.9299 70.174 51.8859 66.334C54.4119 61.374 56.8359 55.162 56.8359 55.162C56.8359 55.162 57.0619 56.682 57.7999 59.192C58.2339 60.67 59.1579 62.304 59.8859 63.87C59.2999 64.684 58.9399 65.15 58.9399 65.15C58.9399 65.15 58.9439 65.158 58.9499 65.174C58.4819 65.796 57.9559 66.466 57.4059 67.122C55.4119 69.498 53.0359 72.21 52.7179 72.994C52.3439 73.916 52.4319 74.596 53.1559 75.14C53.6839 75.538 54.6259 75.6 55.6099 75.534C57.4019 75.414 58.6639 74.968 59.2859 74.698C60.2559 74.356 61.3859 73.816 62.4459 73.036C64.4019 71.598 65.5819 69.54 65.4699 66.814C65.4079 65.312 64.9279 63.824 64.3219 62.418C64.4999 62.162 64.6779 61.906 64.8559 61.644C67.9399 57.134 70.3319 52.18 70.3319 52.18C70.3319 52.18 70.5579 53.7 71.2959 56.21C71.6699 57.482 72.4079 58.868 73.0699 60.228C70.1699 62.584 68.3719 65.322 67.7459 67.118C66.5919 70.44 67.4959 71.946 69.1919 72.288C69.9599 72.444 71.0459 72.092 71.8619 71.746C72.8779 71.41 74.0979 70.848 75.2379 70.01C77.1939 68.572 79.0759 66.558 78.9619 63.832C78.9099 62.592 78.5739 61.36 78.1179 60.176C80.5759 59.152 83.7599 58.582 87.8139 59.056C96.5119 60.072 98.2179 65.502 97.8919 67.774C97.5659 70.048 95.7419 71.296 95.1319 71.674C94.5219 72.052 94.3359 72.182 94.3879 72.462C94.4619 72.87 94.7439 72.854 95.2639 72.766C95.9799 72.646 99.8299 70.918 99.9959 66.722C100.204 61.406 95.0999 55.556 86.0599 55.604ZM19.0239 78.204C16.1439 81.346 12.1179 82.534 10.3919 81.534C8.5279 80.454 9.2659 75.826 12.8019 72.492C14.9559 70.46 17.7379 68.588 19.5839 67.434C20.0039 67.182 20.6199 66.81 21.3699 66.36C21.4939 66.29 21.5639 66.25 21.5639 66.25L21.5619 66.246C21.7059 66.16 21.8559 66.07 22.0079 65.978C23.2939 70.726 22.0479 74.906 19.0239 78.204ZM40.0099 63.936C39.0059 66.382 36.9059 72.64 35.6279 72.304C34.5299 72.016 33.8619 67.258 35.4079 62.578C36.1859 60.222 37.8479 57.406 38.8259 56.312C40.3979 54.554 42.1299 53.978 42.5499 54.692C43.0879 55.6 40.6399 62.402 40.0099 63.936ZM57.3499 72.21C56.9239 72.432 56.5339 72.572 56.3539 72.464C56.2199 72.384 56.5299 72.092 56.5299 72.092C56.5299 72.092 58.6979 69.758 59.5539 68.696C60.0499 68.078 60.6279 67.344 61.2539 66.524C61.2599 66.606 61.2619 66.688 61.2619 66.768C61.2539 69.564 58.5539 71.45 57.3499 72.21ZM70.7079 69.164C70.3899 68.938 70.4439 68.208 71.4859 65.936C71.8959 65.044 72.8299 63.54 74.4559 62.104C74.6439 62.694 74.7599 63.26 74.7559 63.788C74.7339 67.306 72.2239 68.62 70.7079 69.164Z" fill="#BB6BD9"/>
</g>
<defs>
<clipPath id="clip0">
<rect width="100" height="100" fill="white"/>
</clipPath>
</defs>
</svg>
