<svg width="50" height="50" viewBox="0 0 50 50" fill="none" xmlns="http://www.w3.org/2000/svg">
<path d="M38.8889 0H11.1111C4.975 0 0 4.975 0 11.1111V38.8889C0 45.025 4.975 50 11.1111 50H38.8889C45.025 50 50 45.025 50 38.8889V11.1111C50 4.975 45.025 0 38.8889 0ZM39.0278 18.0944C39.0278 18.3333 39.0278 18.5694 39.0278 19.0472C39.0278 28.0944 32.1222 38.5722 19.5028 38.5722C15.6944 38.5722 12.1222 37.3806 9.02778 35.4778C9.50278 35.4778 10.2194 35.4778 10.6944 35.4778C13.7889 35.4778 16.8861 34.2861 19.2667 32.6194C16.1722 32.6194 13.7917 30.4778 12.8389 27.8583C13.3139 27.8583 13.7917 28.0972 14.0306 28.0972C14.7444 28.0972 15.2222 28.0972 15.9361 27.8583C12.8417 27.1444 10.4611 24.525 10.4611 21.1917C11.4139 21.6667 12.3667 21.9056 13.5556 22.1444C11.65 20.4778 10.4611 18.5722 10.4611 16.1917C10.4611 15 10.7 13.8111 11.4139 12.8583C14.7472 16.9056 19.7472 19.7639 25.4611 20C25.4611 19.525 25.2222 19.0472 25.2222 18.3333C25.2222 14.525 28.3167 11.4278 32.1278 11.4278C34.0333 11.4278 35.9361 12.1417 37.1278 13.5694C38.7944 13.3306 40.2222 12.6167 41.4139 11.9028C40.9389 13.5694 39.7472 14.7611 38.3194 15.7111C39.7472 15.4722 40.9389 15.2361 42.3667 14.5194C41.4083 15.9528 40.2194 17.1417 39.0278 18.0944Z" fill="#EEEEEE"/>
</svg>
