<svg width="100" height="100" viewBox="0 0 100 100" fill="none" xmlns="http://www.w3.org/2000/svg">
<path fill-rule="evenodd" clip-rule="evenodd" d="M0 50V90C0 95.5229 4.47715 100 10 100H90C95.5228 100 100 95.5229 100 90V10C100 4.47716 95.5229 0 90 0H10C4.47716 0 0 4.47715 0 10V50ZM22.1021 50.335L22.0704 54.43H35.0861V91.4143H44.2931V54.43H57.3087V50.4143C57.3087 48.1917 57.2611 46.3347 57.1978 46.287C57.1501 46.2237 49.2294 46.1917 39.6263 46.2077L22.1501 46.2554L22.1025 50.3347L22.1021 50.335ZM86.9475 49.7361C85.1698 47.8947 83.2331 46.7681 80.6936 46.133V46.1334C78.9632 45.7045 74.8678 45.5775 73.1061 45.9107C67.6776 46.9427 63.9159 50.4185 62.8522 55.4029C62.5503 56.8314 62.646 60.3712 63.0268 61.7837C63.487 63.4822 64.5983 65.5142 65.7729 66.7837C67.8046 68.9744 70.0268 70.3552 75.1854 72.5779C79.6936 74.5298 81.2811 75.4666 82.0585 76.5779C82.6616 77.4505 82.8046 77.9584 82.8046 79.1169C82.8046 80.4029 82.4237 81.2759 81.503 82.117C79.3444 84.0537 74.9632 84.2919 71.7729 82.6091C70.6616 82.022 68.8206 80.2599 67.9792 78.9744L67.376 78.0853L64.503 79.7521C62.9159 80.6724 61.2331 81.6412 60.7885 81.8951C60.3284 82.165 59.9159 82.4189 59.8682 82.4822C59.7569 82.6728 61.5507 85.3236 62.4714 86.3396C64.8206 88.9427 68.6303 90.9267 72.646 91.6412C74.4874 91.9744 78.5507 92.022 80.2647 91.7205C85.8049 90.7841 89.7413 87.9584 91.3284 83.7998C92.7729 79.9744 92.2968 74.8318 90.1698 71.6091C88.2647 68.7205 85.2014 66.6888 78.0428 63.6091C74.1538 61.9267 72.9159 61.1013 72.2491 59.7205C71.9315 59.0853 71.8206 58.6251 71.8206 57.847C71.8046 55.1966 73.7573 53.6091 76.7886 53.8158C78.8522 53.9584 80.2014 54.7681 81.487 56.6408C81.9155 57.2759 82.2967 57.6888 82.3921 57.6252C85.0268 55.9904 89.3757 53.0697 89.3444 52.9427C89.2331 52.5142 87.8682 50.7205 86.9475 49.7361Z" fill="#00ADB5"/>
</svg>
