<svg width="174" height="122" viewBox="0 0 174 122" fill="none" xmlns="http://www.w3.org/2000/svg">
<g clip-path="url(#clip0)">
<path d="M81.5937 118.288C81.5937 120.152 63.3055 120.351 40.7969 121.664C18.3093 122.976 0 120.152 0 118.288C0 116.423 18.3936 112.672 40.7969 114.912C63.3055 117.162 81.5937 116.423 81.5937 118.288Z" fill="#E6E6E6"/>
<path d="M167.618 0.000203395H119.261C116.928 0.000201028 114.664 0.741126 112.841 2.10118C111.019 3.46124 109.746 5.35949 109.233 7.48391L84.7996 108.628C84.5331 109.731 84.5284 110.876 84.7859 111.981C85.0433 113.086 85.5567 114.125 86.2899 115.025C87.0232 115.926 87.9586 116.666 89.0306 117.193C90.1026 117.72 91.2852 118.022 92.4955 118.078L142.206 120.364C144.868 120.486 147.487 119.7 149.574 118.153C151.66 116.606 153.073 114.403 153.547 111.956L167.407 40.4457L168.438 40.7207L171.09 27.1668L170.029 26.9192L173.898 6.95814C174.064 6.10317 174.025 5.22461 173.785 4.38509C173.546 3.54557 173.11 2.76576 172.51 2.10126C171.911 1.43676 171.161 0.903935 170.315 0.540763C169.47 0.177591 168.548 -0.00698241 167.618 0.000201964L167.618 0.000203395Z" fill="#222831"/>
<path d="M125.627 2.18061H119.983C118.362 2.18061 116.789 2.69801 115.527 3.64692C114.264 4.59583 113.387 5.91918 113.042 7.39727L89.589 107.716C89.4539 108.294 89.4541 108.892 89.5894 109.469C89.7246 110.047 89.9919 110.59 90.3728 111.063C90.7538 111.535 91.2395 111.925 91.7968 112.206C92.354 112.487 92.9697 112.653 93.6018 112.691L143.152 115.722C144.55 115.808 145.932 115.41 147.036 114.605C148.14 113.799 148.887 112.643 149.135 111.356L169.148 7.66673C169.277 6.99561 169.247 6.30613 169.06 5.64696C168.873 4.98779 168.533 4.37499 168.064 3.8518C167.596 3.32861 167.01 2.90779 166.348 2.61903C165.686 2.33027 164.964 2.18061 164.233 2.18061H158.879C158.36 2.18061 157.857 2.34006 157.445 2.63428C157.034 2.9285 156.738 3.34108 156.603 3.80813C156.484 4.22046 156.223 4.58469 155.86 4.84444C155.497 5.10418 155.052 5.24495 154.594 5.24495H129.173C128.277 5.24495 127.414 4.92933 126.757 4.3612C126.099 3.79307 125.696 3.0143 125.627 2.1806V2.18061Z" fill="white"/>
<path d="M72.5881 53.7815L76.957 61.8535L90.0202 67.3959C91.4153 69.5962 95.8482 69.7646 96.1706 68.3418C96.5323 66.7455 90.7875 64.1763 90.7875 64.1763L79.8612 57.2791L78.9051 51.3415L72.5881 53.7815Z" fill="#A0616A"/>
<path d="M73.1033 107.951L72.2976 113.967L76.9708 114.268L77.4541 107.951H73.1033Z" fill="#A0616A"/>
<path d="M73.7479 113.064C73.3302 112.652 72.9448 112.212 72.5948 111.748C71.9251 110.883 71.3308 115.32 71.3308 115.32C71.3308 115.32 70.6863 117.125 70.8474 118.027C71.0085 118.93 74.7148 118.93 75.3594 118.779C76.0039 118.629 79.2268 118.779 79.2268 118.779H84.061C88.2507 116.975 84.061 115.771 84.061 115.771C82.7719 115.621 78.4211 111.861 78.4211 111.861L77.4542 110.207C76.8097 110.057 76.1651 112.312 76.1651 112.312L73.7479 113.064Z" fill="#2F2E41"/>
<path d="M61.0178 108.026L60.2119 114.042L64.8851 114.343L65.3686 108.026H61.0178Z" fill="#A0616A"/>
<path d="M61.6625 113.14C61.2447 112.727 60.8594 112.287 60.5094 111.823C59.8396 110.958 59.2454 115.395 59.2454 115.395C59.2454 115.395 58.6008 117.05 58.7619 117.952C58.9231 118.854 62.6294 118.854 63.2739 118.704C63.9185 118.554 67.1413 118.854 67.1413 118.854H71.9756C76.1653 117.05 71.9756 115.847 71.9756 115.847C70.6864 115.696 66.3356 111.936 66.3356 111.936L65.3688 110.282C64.7242 110.132 64.0796 112.388 64.0796 112.388L61.6625 113.14Z" fill="#2F2E41"/>
<path d="M66.3356 69.2261C65.691 69.978 66.0133 72.5346 66.0133 72.5346C66.0133 72.5346 64.8853 80.806 65.3687 81.558C65.8521 82.3099 65.0464 82.9115 64.563 83.9642C64.0796 85.0169 63.5962 87.5735 63.5962 87.5735C60.8567 89.679 61.0179 99.3038 61.0179 99.3038L60.051 107.876C60.3733 108.778 64.8853 108.929 65.5298 108.778C66.1744 108.628 68.1081 95.0929 68.1081 95.0929L72.459 87.4231C72.459 87.4231 72.1367 107.876 72.1367 108.778C72.1367 109.681 76.4875 109.229 77.4543 109.229C78.4212 109.229 78.4212 94.1906 78.4212 94.1906L79.3881 90.2805L84.5446 72.3843V70.2788L83.7389 69.2261C83.7389 69.2261 66.9801 68.4742 66.3356 69.2261Z" fill="#222831"/>
<path d="M73.4258 35.0879C76.1847 35.0879 78.4212 33.0006 78.4212 30.4258C78.4212 27.8511 76.1847 25.7638 73.4258 25.7638C70.6669 25.7638 68.4304 27.8511 68.4304 30.4258C68.4304 33.0006 70.6669 35.0879 73.4258 35.0879Z" fill="#A0616A"/>
<path d="M75.9235 32.6065C74.9109 34.7108 75.5105 37.65 77.5349 40.8779L69.3167 37.2685L70.6058 36.2158L70.2835 33.208L75.9235 32.6065Z" fill="#A0616A"/>
<path d="M75.9236 37.4189C76.9998 38.0161 77.6435 39.1132 78.0131 40.2295C78.6973 42.2964 79.1091 44.4334 79.2395 46.5932L79.6298 53.0594L84.4641 70.2037C80.2744 73.5122 77.8573 72.7603 72.2173 70.0533C66.5774 67.3463 65.9328 70.9556 65.9328 70.9556C65.9328 70.9556 65.4494 70.8052 65.9328 70.354C66.4162 69.9029 65.9328 70.354 65.4494 69.9029C64.9659 69.4517 65.4494 69.9029 65.6105 69.4517C65.7716 69.0005 65.6105 69.3013 65.4494 69.1509C65.2882 69.0005 66.0939 67.647 66.0939 67.647L64.8048 56.3679L63.1934 40.4267C65.1271 38.1709 70.6059 36.2158 70.6059 36.2158L75.6013 39.5244C77.2127 40.1259 75.9236 37.7197 75.9236 37.7197L75.9236 37.4189Z" fill="#00ADB5"/>
<path d="M60.5345 49.9763L59.8899 58.9997L68.1081 69.978C68.1081 72.5347 69.5584 73.1362 69.5584 73.1362C70.1077 72.318 70.5924 71.4635 71.0087 70.5796C71.8144 68.9253 70.5253 67.5718 70.5253 67.5718L64.8853 56.4431L67.3024 50.8787L60.5345 49.9763Z" fill="#A0616A"/>
<path d="M63.2739 40.5019C60.5344 41.4042 60.051 51.1795 60.051 51.1795C63.2739 49.5252 67.1413 52.2322 67.1413 52.2322C67.1413 52.2322 67.947 49.6756 68.9138 46.3671C69.2058 45.4364 69.2407 44.452 69.0153 43.5053C68.7899 42.5587 68.3115 41.6807 67.6247 40.9531C67.6247 40.9531 66.0133 39.5996 63.2739 40.5019Z" fill="#00ADB5"/>
<path d="M68.8332 31.8545C69.4691 31.3797 70.3367 32.2427 70.3367 32.2427L70.8454 27.9695C70.8454 27.9695 74.0251 28.3257 76.0601 27.8508C78.0951 27.376 78.4131 29.572 78.4131 29.572C78.518 28.6852 78.5392 27.7915 78.4766 26.9012C78.3495 25.8329 76.696 24.7646 73.7707 24.0524C70.8454 23.3402 69.3192 26.4264 69.3192 26.4264C67.2842 27.376 68.1972 32.3293 68.8332 31.8545Z" fill="#2F2E41"/>
<path d="M153.747 72.3123C153.844 72.3157 153.939 72.2866 154.015 72.2303C154.091 72.1739 154.143 72.0941 154.162 72.0051L165.272 15.5656C165.283 15.5119 165.281 15.4566 165.266 15.4037C165.251 15.3509 165.224 15.3016 165.187 15.2594C165.15 15.2172 165.103 15.1832 165.051 15.1595C164.998 15.1359 164.94 15.1234 164.882 15.1227L114.332 14.5731H114.328C114.237 14.5734 114.148 14.6026 114.077 14.6558C114.006 14.709 113.956 14.7832 113.936 14.8662L100.838 69.4738C100.825 69.5271 100.825 69.5825 100.837 69.6359C100.85 69.6893 100.875 69.7395 100.91 69.7829C100.946 69.8264 100.991 69.8621 101.043 69.8876C101.095 69.913 101.152 69.9276 101.21 69.9302L153.747 72.3123Z" fill="#E6E6E6"/>
<path d="M109.756 75.9175C109.71 75.9175 109.666 75.9318 109.631 75.9582C109.595 75.9845 109.57 76.0213 109.56 76.0625L109.093 77.9299C109.087 77.9563 109.086 77.9837 109.092 78.0103C109.098 78.0369 109.11 78.0619 109.127 78.0838C109.145 78.1056 109.167 78.1237 109.192 78.1368C109.218 78.1499 109.246 78.1576 109.275 78.1596L135.648 79.909C135.697 79.9118 135.745 79.8981 135.784 79.8703C135.823 79.8425 135.85 79.8025 135.86 79.7577L136.309 77.5973C136.314 77.571 136.313 77.544 136.307 77.518C136.3 77.492 136.288 77.4677 136.27 77.4466C136.253 77.4255 136.23 77.4081 136.205 77.3956C136.18 77.3832 136.152 77.3759 136.123 77.3744L109.768 75.9178C109.764 75.9177 109.76 75.9175 109.756 75.9175Z" fill="#E6E6E6"/>
<path d="M141.797 86.8472C141.845 86.8506 141.892 86.8382 141.931 86.8122C141.97 86.7861 141.997 86.7482 142.009 86.705L142.58 84.54C142.587 84.5135 142.588 84.4858 142.582 84.4589C142.577 84.4321 142.565 84.4067 142.547 84.3846C142.53 84.3625 142.508 84.3442 142.482 84.331C142.457 84.3177 142.428 84.3099 142.399 84.308L108.719 82.1097C108.673 82.1063 108.628 82.1177 108.59 82.1421C108.553 82.1665 108.525 82.2022 108.512 82.2434L107.918 84.1142C107.91 84.1409 107.908 84.1691 107.913 84.1967C107.917 84.2243 107.928 84.2505 107.945 84.2736C107.962 84.2966 107.985 84.3158 108.01 84.3297C108.036 84.3437 108.065 84.3521 108.095 84.3543L141.797 86.8472Z" fill="#E6E6E6"/>
<path d="M139.989 93.7869C140.036 93.7904 140.084 93.7781 140.122 93.752C140.161 93.726 140.189 93.688 140.2 93.6447L140.772 91.4797C140.779 91.4532 140.779 91.4255 140.774 91.3987C140.768 91.3718 140.756 91.3464 140.739 91.3243C140.721 91.3022 140.699 91.2839 140.674 91.2707C140.648 91.2574 140.619 91.2496 140.59 91.2477L106.911 89.0494C106.865 89.046 106.819 89.0574 106.782 89.0818C106.744 89.1062 106.716 89.1419 106.704 89.1831L106.11 91.0539C106.101 91.0806 106.099 91.1088 106.104 91.1364C106.109 91.164 106.12 91.1902 106.137 91.2133C106.154 91.2363 106.176 91.2555 106.202 91.2695C106.228 91.2834 106.257 91.2918 106.286 91.294L139.989 93.7869Z" fill="#E6E6E6"/>
<path d="M124.477 105.692C124.525 105.697 124.573 105.685 124.612 105.659C124.652 105.633 124.68 105.594 124.691 105.551L125.899 101.04C125.906 101.013 125.907 100.986 125.902 100.959C125.896 100.932 125.885 100.907 125.868 100.885C125.851 100.863 125.829 100.844 125.804 100.831C125.778 100.818 125.75 100.809 125.721 100.807L105.038 99.1836C104.99 99.1805 104.942 99.1934 104.903 99.2202C104.864 99.247 104.836 99.2858 104.825 99.3297L103.794 103.659C103.788 103.685 103.788 103.712 103.794 103.738C103.8 103.764 103.811 103.789 103.828 103.81C103.845 103.832 103.866 103.85 103.891 103.863C103.916 103.876 103.943 103.884 103.972 103.887L124.477 105.692Z" fill="#00ADB5"/>
</g>
<defs>
<clipPath id="clip0">
<rect width="174" height="122" fill="white"/>
</clipPath>
</defs>
</svg>
