<svg width="360" height="359" viewBox="0 0 360 359" fill="none" xmlns="http://www.w3.org/2000/svg">
<path fill-rule="evenodd" clip-rule="evenodd" d="M153.428 0.947723C66.6161 13.7926 0 88.6168 0 179C0 224.982 17.2416 266.937 45.6126 298.753L54.9802 294.197C27.0562 263.907 10 223.446 10 179C10 93.9636 72.4364 23.5099 153.967 10.9808L153.428 0.947723ZM309.696 69.0898L316.569 61.739C343.64 93.2384 360 134.209 360 179C360 205.258 354.377 230.203 344.271 252.697L334.589 249.826C344.484 228.264 350 204.276 350 179C350 137.092 334.836 98.7263 309.696 69.0898ZM127.952 340.884C144.355 346.154 161.845 349 180 349C212.66 349 243.169 339.79 269.072 323.825L273.554 332.808C246.291 349.427 214.264 359 180 359C159.631 359 140.051 355.617 121.794 349.381L127.952 340.884Z" fill="#00ADB5"/>
</svg>
