<svg width="360" height="361" viewBox="0 0 360 361" fill="none" xmlns="http://www.w3.org/2000/svg">
<path fill-rule="evenodd" clip-rule="evenodd" d="M173.501 0.115234C77.0998 3.53773 0 82.791 0 180.058C0 195.819 2.0245 211.108 5.82757 225.677L15.0111 221.209C11.7375 208.032 10 194.248 10 180.058C10 88.131 82.9129 13.245 174.037 10.1027L173.501 0.115234ZM289.978 50.3755L296.814 43.062C335.483 76.0875 360 125.209 360 180.058C360 206.324 354.378 231.277 344.271 253.778L334.59 250.906C344.484 229.338 350 205.342 350 180.058C350 128.09 326.698 81.5684 289.978 50.3755ZM269.073 324.931C243.17 340.902 212.66 350.115 180 350.115C132.341 350.115 89.262 330.497 58.3936 298.891L52.4451 307.101C85.0403 339.848 130.154 360.115 180 360.115C214.264 360.115 246.291 350.539 273.554 333.915L269.073 324.931Z" fill="#00ADB5"/>
</svg>
