<svg width="460" height="456" viewBox="0 0 460 456" fill="none" xmlns="http://www.w3.org/2000/svg">
<path fill-rule="evenodd" clip-rule="evenodd" d="M405.56 362.605C385.305 389.379 359.066 411.376 328.833 426.604L332.77 435.819C364.915 419.737 392.766 396.347 414.147 367.826L405.56 362.605ZM447.542 304.862C455.616 281.394 460 256.209 460 230C460 182.81 445.788 138.94 421.412 102.435L414.626 110.314C437.002 144.761 450 185.863 450 230C450 255.709 445.59 280.389 437.485 303.323L447.542 304.862ZM346.032 43.0511L349.409 33.3865C314.602 12.2019 273.726 0 230 0C102.975 0 0 102.975 0 230C0 246.634 1.76586 262.856 5.12034 278.488L15.2657 278.063C11.8184 262.593 10 246.509 10 230C10 108.497 108.497 10 230 10C272.587 10 312.348 22.1006 346.032 43.0511ZM189.741 446.325C127.805 434.871 74.9687 397.474 42.9236 345.826L33.1025 348.941C66.0902 403.433 121.06 443.131 185.718 455.741L189.741 446.325Z" fill="#393546"/>
</svg>
