<svg width="460" height="458" viewBox="0 0 460 458" fill="none" xmlns="http://www.w3.org/2000/svg">
<path fill-rule="evenodd" clip-rule="evenodd" d="M383.866 73.902C424.659 114.542 450 171.224 450 234.008C450 260.176 445.598 285.284 437.509 308.613L447.542 310.174C455.616 286.297 460 260.674 460 234.008C460 168.213 433.312 108.761 390.348 66.2451L383.866 73.902ZM299.594 10.9038C277.64 3.82102 254.259 0 230 0C153.057 0 84.938 38.4408 43.1845 97.476L52.0854 102.21C92.1163 46.2922 156.948 10 230 10C253.112 10 275.401 13.6327 296.343 20.3702L299.594 10.9038ZM15.7992 285.337C12.0065 268.858 10 251.675 10 234.008C10 212.613 12.943 191.926 18.4375 172.34L8.66697 170.154C3.0212 190.452 0 211.871 0 234.008C0 252.419 2.08985 270.334 6.04136 287.52L15.7992 285.337ZM42.2606 350.859L33.4231 355.559C60.1259 400.167 101.084 434.97 149.859 453.419L153.737 444.185C107.11 426.636 67.8913 393.456 42.2606 350.859ZM285.996 450.691L289.905 460C340.232 446.225 383.736 415.51 414.147 374.236L405.616 368.958C376.275 408.475 334.371 437.761 285.996 450.691Z" fill="#393546"/>
</svg>
