<svg width="139" height="122" viewBox="0 0 139 122" fill="none" xmlns="http://www.w3.org/2000/svg">
<path d="M75.8716 33.9757C82.9402 33.9757 88.6704 28.1479 88.6704 20.959C88.6704 13.7701 82.9402 7.94232 75.8716 7.94232C68.803 7.94232 63.0728 13.7701 63.0728 20.959C63.0728 28.1479 68.803 33.9757 75.8716 33.9757Z" fill="#A0616A"/>
<path d="M66.3188 27.4673C66.3188 27.4673 68.7302 45.9548 65.0204 48.03C61.3106 50.1051 87.0938 50.2937 87.0938 50.2937C87.0938 50.2937 81.3436 34.2587 83.9404 29.3538L66.3188 27.4673Z" fill="#A0616A"/>
<path d="M105.921 50.3872L103.777 60.3176L99.2426 81.327L99.1068 82.4776L97.5421 95.7977L96.5013 104.646L95.8034 110.59C91.5601 112.808 88.4846 114.34 88.4846 114.34C88.4846 114.34 88.2201 112.991 87.7937 111.265C84.8157 112.173 79.3053 113.679 74.6356 113.98C76.3361 115.908 77.1175 117.719 76.0576 119.055C72.8586 123.084 59.6517 114.644 55.0325 111.497C54.925 112.25 54.8842 113.012 54.9107 113.773L51.3757 111.008L51.7256 104.646L52.3156 93.8824L53.057 80.3835C52.8233 79.8055 52.6273 79.2124 52.4705 78.6081C51.3879 74.6926 50.0738 66.8741 49.0661 60.3176C48.255 55.0409 47.6459 50.582 47.5171 49.6332C47.4997 49.5093 47.491 49.4456 47.491 49.4456L67.0593 40.6516C68.4499 43.9317 74.9437 44.9176 74.9437 44.9176C80.3235 44.5406 84.5407 41.6553 84.5407 41.6553L105.921 50.3872Z" fill="#D0CDE1"/>
<path d="M89.9694 110.567C89.9694 110.567 89.1409 110.856 87.7938 111.265C84.8158 112.173 79.3054 113.679 74.6357 113.98C70.6152 114.242 67.2177 113.612 66.5964 110.944C66.3301 109.797 66.7078 108.854 67.531 108.079C69.9886 105.762 76.4075 104.931 81.4984 104.646C82.9361 104.567 84.2658 104.53 85.3728 104.515C87.2525 104.491 88.4848 104.53 88.4848 104.53L88.5143 104.646L89.9694 110.567Z" fill="#A0616A"/>
<path d="M65.2241 8.64641L62.831 7.67206C62.831 7.67206 67.8347 2.06952 74.7964 2.55672L72.8384 0.364398C72.8384 0.364398 77.6245 -1.58429 81.9756 3.53105C84.2628 6.22006 86.9092 9.38088 88.5589 12.9415H91.1218L90.0522 15.3368L93.7958 17.732L89.9533 17.3018C90.1823 18.6135 90.2174 19.9526 90.0576 21.2748C89.8927 22.5975 89.2291 23.8032 88.2067 24.6376C88.2067 24.6376 85.2388 18.3899 85.2388 17.4156V19.8515C85.2388 19.8515 82.8457 17.6592 82.8457 16.1977L81.5404 17.9028L80.8878 15.2233L72.8384 17.9028L74.1437 15.7105L69.14 16.4412L71.098 13.7618C71.098 13.7618 65.4417 16.9284 65.2241 19.6079C65.0066 22.2873 63.3509 24.8263 63.3509 24.8263C63.3509 24.8263 58.9151 12.3002 65.2241 8.64641Z" fill="#222831"/>
<path d="M119.832 96.0402C118.529 97.4775 115.299 99.6423 111.382 101.986C109.926 102.857 108.375 103.754 106.793 104.646C103.018 106.776 99.065 108.886 95.8033 110.59C91.56 112.808 88.4846 114.34 88.4846 114.34C88.4846 114.34 88.22 112.991 87.7936 111.265C87.2227 108.955 86.3629 105.969 85.4666 104.646C85.4352 104.6 85.4039 104.558 85.3726 104.515C85.1115 104.167 84.8487 103.963 84.5894 103.963L97.5421 95.7977L103.139 92.2681L99.1068 82.4776L94.0489 70.1966L97.1017 60.3176L100.17 50.3873H105.921C105.921 50.3873 107.825 54.6143 110.26 60.5088C110.624 61.3903 111 62.309 111.382 63.2577C116.392 75.6485 122.636 92.9513 119.832 96.0402Z" fill="#D0CDE1"/>
<path d="M76.0575 119.055C72.8585 123.084 59.6517 114.644 55.0325 111.497C54.0265 110.812 53.4277 110.378 53.4277 110.378L57.6536 104.646L58.9921 102.832C58.9921 102.832 60.1895 103.478 61.9596 104.53C62.024 104.569 62.0884 104.607 62.1545 104.646C63.6809 105.558 65.5972 106.749 67.5309 108.079C70.1991 109.914 72.8968 112.008 74.6356 113.98C76.336 115.908 77.1175 117.719 76.0575 119.055Z" fill="#A0616A"/>
<path d="M61.9595 104.53C61.4872 104.528 61.0156 104.567 60.5498 104.646C56.5484 105.346 55.3683 109.029 55.0324 111.497C54.9249 112.25 54.8841 113.012 54.9106 113.773L51.3756 111.008L50.0877 110.001C46.9879 108.902 44.2257 106.949 41.8308 104.646C39.7532 102.613 37.8895 100.366 36.27 97.9395C34.6568 95.5484 33.2188 93.0399 31.9675 90.4342C31.6183 89.7071 31.4306 88.9108 31.4177 88.1017C31.4048 87.2926 31.5669 86.4906 31.8926 85.7523L36.27 75.8308L42.668 61.3301C42.715 60.9849 42.7666 60.6474 42.8229 60.3176C44.0917 52.9185 47.4909 49.6332 47.4909 49.6332H50.0877L51.8247 60.3176L53.9829 73.5916L52.4704 78.6081L48.9755 90.1935L52.3155 93.8824L61.9595 104.53Z" fill="#D0CDE1"/>
<path d="M64.8988 73.6022L67.1188 76.2363C67.9435 76.0764 68.8048 75.8884 69.692 75.6773L69.0543 73.6022L70.6134 75.4521C80.0116 73.1012 91.6605 68.5307 91.6605 68.5307C91.6605 68.5307 79.0843 69.4685 69.6941 67.3821C65.5395 66.459 61.2648 68.5536 59.5599 72.5159C58.569 74.8189 58.7246 76.8142 62.2392 76.8142C63.4268 76.7936 64.6111 76.6803 65.7816 76.4753L64.8988 73.6022Z" fill="#00ADB5"/>
<path d="M115.507 116.896V117.97C115.508 118.265 115.454 118.557 115.349 118.832C115.302 118.955 115.246 119.073 115.18 119.186C114.973 119.54 114.678 119.833 114.326 120.037C113.974 120.241 113.575 120.348 113.17 120.347H35.4486C35.0433 120.348 34.6449 120.241 34.2925 120.037C33.9401 119.833 33.6457 119.54 33.4383 119.186C33.3727 119.073 33.3162 118.955 33.2695 118.832C33.1642 118.557 33.1105 118.265 33.1111 117.97V116.896C33.111 116.583 33.1714 116.274 33.2889 115.986C33.4063 115.697 33.5785 115.435 33.7955 115.214C34.0126 114.994 34.2703 114.819 34.554 114.699C34.8376 114.58 35.1416 114.518 35.4486 114.518H39.9286V114.017C39.9286 114.004 39.9311 113.991 39.936 113.979C39.9408 113.967 39.948 113.956 39.9571 113.947C39.9661 113.938 39.9769 113.931 39.9887 113.926C40.0006 113.921 40.0132 113.918 40.026 113.918H42.3635C42.3763 113.918 42.389 113.921 42.4008 113.926C42.4127 113.931 42.4234 113.938 42.4325 113.947C42.4415 113.956 42.4487 113.967 42.4536 113.979C42.4585 113.991 42.461 114.004 42.461 114.017V114.518H43.9212V114.017C43.9212 114.004 43.9237 113.991 43.9286 113.979C43.9335 113.967 43.9407 113.956 43.9497 113.947C43.9588 113.938 43.9696 113.931 43.9814 113.926C43.9932 113.921 44.0059 113.918 44.0187 113.918H46.3562C46.369 113.918 46.3817 113.921 46.3935 113.926C46.4053 113.931 46.4161 113.938 46.4252 113.947C46.4342 113.956 46.4414 113.967 46.4463 113.979C46.4512 113.991 46.4537 114.004 46.4537 114.017V114.518H47.9157V114.017C47.9156 114.004 47.9182 113.991 47.923 113.979C47.9279 113.967 47.9351 113.956 47.9442 113.947C47.9532 113.938 47.964 113.931 47.9758 113.926C47.9876 113.921 48.0003 113.918 48.0131 113.918H50.3506C50.3634 113.918 50.3761 113.921 50.3879 113.926C50.3998 113.931 50.4105 113.938 50.4196 113.947C50.4286 113.956 50.4358 113.967 50.4407 113.979C50.4456 113.991 50.4481 114.004 50.4481 114.017V114.518H51.9083V114.017C51.9083 114.004 51.9108 113.991 51.9157 113.979C51.9206 113.967 51.9278 113.956 51.9368 113.947C51.9459 113.938 51.9566 113.931 51.9685 113.926C51.9803 113.921 51.993 113.918 52.0058 113.918H54.3433C54.3561 113.918 54.3688 113.921 54.3806 113.926C54.3924 113.931 54.4032 113.938 54.4122 113.947C54.4213 113.956 54.4285 113.967 54.4334 113.979C54.4383 113.991 54.4408 114.004 54.4407 114.017V114.518H55.901V114.017C55.901 114.004 55.9035 113.991 55.9084 113.979C55.9133 113.967 55.9205 113.956 55.9295 113.947C55.9386 113.938 55.9493 113.931 55.9612 113.926C55.973 113.921 55.9857 113.918 55.9985 113.918H58.336C58.3488 113.918 58.3615 113.921 58.3733 113.926C58.3851 113.931 58.3959 113.938 58.4049 113.947C58.414 113.956 58.4212 113.967 58.4261 113.979C58.4309 113.991 58.4334 114.004 58.4334 114.017V114.518H59.8954V114.017C59.8954 114.004 59.8979 113.991 59.9028 113.979C59.9077 113.967 59.9149 113.956 59.9239 113.947C59.933 113.938 59.9437 113.931 59.9556 113.926C59.9674 113.921 59.9801 113.918 59.9929 113.918H62.3304C62.3432 113.918 62.3559 113.921 62.3677 113.926C62.3795 113.931 62.3903 113.938 62.3993 113.947C62.4084 113.956 62.4156 113.967 62.4205 113.979C62.4254 113.991 62.4279 114.004 62.4278 114.017V114.518H63.8881V114.017C63.8881 114.004 63.8906 113.991 63.8955 113.979C63.9004 113.967 63.9076 113.956 63.9166 113.947C63.9257 113.938 63.9364 113.931 63.9483 113.926C63.9601 113.921 63.9728 113.918 63.9856 113.918H82.2955C82.3083 113.918 82.321 113.921 82.3328 113.926C82.3447 113.931 82.3554 113.938 82.3645 113.947C82.3735 113.956 82.3807 113.967 82.3856 113.979C82.3905 113.991 82.393 114.004 82.393 114.017V114.518H83.855V114.017C83.855 114.004 83.8575 113.991 83.8623 113.979C83.8672 113.967 83.8744 113.956 83.8835 113.947C83.8925 113.938 83.9033 113.931 83.9151 113.926C83.927 113.921 83.9396 113.918 83.9524 113.918H86.2899C86.3157 113.919 86.3403 113.929 86.3586 113.948C86.3768 113.966 86.3871 113.991 86.3874 114.017V114.518H87.8477V114.017C87.8476 114.004 87.8501 113.991 87.855 113.979C87.8599 113.967 87.8671 113.956 87.8762 113.947C87.8852 113.938 87.896 113.931 87.9078 113.926C87.9196 113.921 87.9323 113.918 87.9451 113.918H90.2826C90.2954 113.918 90.3081 113.921 90.3199 113.926C90.3318 113.931 90.3425 113.938 90.3516 113.947C90.3606 113.956 90.3678 113.967 90.3727 113.979C90.3776 113.991 90.3801 114.004 90.3801 114.017V114.518H91.8403V114.017C91.8403 114.004 91.8428 113.991 91.8477 113.979C91.8526 113.967 91.8598 113.956 91.8689 113.947C91.8779 113.938 91.8887 113.931 91.9005 113.926C91.9123 113.921 91.925 113.918 91.9378 113.918H94.2753C94.2881 113.918 94.3008 113.921 94.3126 113.926C94.3244 113.931 94.3352 113.938 94.3443 113.947C94.3533 113.956 94.3605 113.967 94.3654 113.979C94.3703 113.991 94.3728 114.004 94.3728 114.017V114.518H95.8348V114.017C95.8347 114.004 95.8372 113.991 95.8421 113.979C95.847 113.967 95.8542 113.956 95.8633 113.947C95.8723 113.938 95.8831 113.931 95.8949 113.926C95.9067 113.921 95.9194 113.918 95.9322 113.918H98.2697C98.2953 113.919 98.3197 113.929 98.3377 113.948C98.3556 113.966 98.3656 113.991 98.3654 114.017V114.518H99.8274V114.017C99.8274 114.004 99.8299 113.991 99.8348 113.979C99.8397 113.967 99.8469 113.956 99.8559 113.947C99.865 113.938 99.8757 113.931 99.8876 113.926C99.8994 113.921 99.9121 113.918 99.9249 113.918H102.262C102.275 113.918 102.288 113.921 102.3 113.926C102.312 113.931 102.322 113.938 102.331 113.947C102.34 113.956 102.348 113.967 102.352 113.979C102.357 113.991 102.36 114.004 102.36 114.017V114.518H103.82V114.017C103.82 114.004 103.823 113.991 103.827 113.979C103.832 113.967 103.84 113.956 103.849 113.947C103.858 113.938 103.868 113.931 103.88 113.926C103.892 113.921 103.905 113.918 103.918 113.918H106.255C106.268 113.918 106.281 113.921 106.292 113.926C106.304 113.931 106.315 113.938 106.324 113.947C106.333 113.956 106.34 113.967 106.345 113.979C106.35 113.991 106.353 114.004 106.353 114.017V114.518H113.17C113.477 114.518 113.781 114.58 114.065 114.699C114.348 114.819 114.606 114.994 114.823 115.214C115.04 115.435 115.212 115.697 115.33 115.986C115.447 116.274 115.508 116.583 115.507 116.896Z" fill="#222831"/>
<path d="M138.108 118.832H10.53V119.186H138.108V118.832Z" fill="#3F3D56"/>
<path d="M109.249 71.6464H80.2803V71.0391H67.1446V71.6464H38.056C37.5363 71.6464 37.0379 71.8563 36.6704 72.2301C36.3029 72.6038 36.0964 73.1107 36.0964 73.6393V113.982C36.0964 114.511 36.3029 115.018 36.6704 115.391C37.0379 115.765 37.5363 115.975 38.056 115.975H109.249C109.769 115.975 110.268 115.765 110.635 115.391C111.003 115.018 111.209 114.511 111.209 113.982V73.6393C111.209 73.3775 111.158 73.1184 111.06 72.8766C110.961 72.6348 110.817 72.4151 110.635 72.2301C110.453 72.045 110.237 71.8982 109.999 71.7981C109.762 71.6979 109.507 71.6464 109.249 71.6464Z" fill="#222831"/>
<path d="M73.7096 90.1563C76.1127 90.1563 78.0608 88.1751 78.0608 85.7311C78.0608 83.287 76.1127 81.3058 73.7096 81.3058C71.3065 81.3058 69.3584 83.287 69.3584 85.7311C69.3584 88.1751 71.3065 90.1563 73.7096 90.1563Z" stroke="#D0CDE1" stroke-width="2" stroke-miterlimit="10"/>
<path d="M72.3173 91.7494C74.7204 91.7494 76.6685 89.7682 76.6685 87.3241C76.6685 84.8801 74.7204 82.8989 72.3173 82.8989C69.9142 82.8989 67.9661 84.8801 67.9661 87.3241C67.9661 89.7682 69.9142 91.7494 72.3173 91.7494Z" fill="#D0CDE1"/>
<path d="M18.8748 117.044H14.0015V122H18.8748V117.044Z" fill="#D0CDE1"/>
<path d="M15.9167 113.15V119.168H21.8344V113.15H15.9167ZM21.5768 118.906H16.1726V113.412H21.5768V118.906Z" fill="#3F3D56"/>
<path d="M131.659 117.044H126.785V122H131.659V117.044Z" fill="#D0CDE1"/>
<path d="M128.7 113.15V119.168H134.618V113.15H128.7ZM134.36 118.906H128.956V113.412H134.36V118.906Z" fill="#3F3D56"/>
<path d="M16.4617 40.7326C24.0882 40.7326 30.2708 34.4448 30.2708 26.6884C30.2708 18.9321 24.0882 12.6443 16.4617 12.6443C8.83513 12.6443 2.65259 18.9321 2.65259 26.6884C2.65259 34.4448 8.83513 40.7326 16.4617 40.7326Z" fill="#00ADB5"/>
<path d="M21.2737 9.99935C20.0234 9.83762 18.7579 9.83762 17.5076 9.99935C14.722 10.3713 12.0999 11.5482 9.95221 13.3903C7.80457 15.2324 6.22161 17.6624 5.39115 20.392C5.01346 21.636 4.79957 22.9253 4.75509 24.2265C4.74882 24.4073 4.74463 24.5903 4.74463 24.7733C4.74851 28.7226 6.29281 32.509 9.03863 35.3015C11.7845 38.0941 15.5075 39.6647 19.3906 39.6686C19.7024 39.6686 20.0141 39.658 20.3217 39.6388C21.0437 39.5928 21.7613 39.4918 22.4684 39.3367C25.8453 38.5981 28.8569 36.6697 30.9713 33.892C33.0858 31.1143 34.167 27.666 34.0241 24.1561C33.8812 20.6463 32.5233 17.3007 30.1902 14.7103C27.8571 12.1199 24.699 10.4514 21.2737 9.99935H21.2737ZM23.9748 38.4728H23.9727C22.7932 38.8821 21.5655 39.1304 20.3217 39.2111C20.0141 39.2324 19.7024 39.2431 19.3906 39.2431C15.6187 39.2384 12.0025 37.7124 9.33532 34.9998C6.66814 32.2872 5.16769 28.6095 5.16307 24.7733C5.16307 24.5903 5.16726 24.4073 5.17353 24.2265C5.31737 20.4879 6.87758 16.9509 9.52755 14.3557C12.1775 11.7606 15.7118 10.3086 19.3906 10.3036C22.7613 10.3038 26.0225 11.521 28.5931 13.7384C31.1637 15.9558 32.8768 19.0292 33.4272 22.4113C33.9776 25.7934 33.3295 29.2643 31.5984 32.2057C29.8674 35.1472 27.1657 37.3681 23.9748 38.4728H23.9748Z" fill="#3F3D56"/>
<path d="M19.5999 11.1548H19.1814V14.1338H19.5999V11.1548Z" fill="#3F3D56"/>
<path d="M10.0701 14.9931L9.77417 15.2941L11.8454 17.4006L12.1413 17.0996L10.0701 14.9931Z" fill="#3F3D56"/>
<path d="M6 24.5606V24.9861H8.9292V24.5606H6Z" fill="#3F3D56"/>
<path d="M9.77417 34.2527L10.0701 34.5536L12.1413 32.4471L11.8454 32.1462L9.77417 34.2527Z" fill="#3F3D56"/>
<path d="M26.6401 17.0996L26.936 17.4006L29.0073 15.2941L28.7114 14.9931L26.6401 17.0996Z" fill="#3F3D56"/>
<path d="M29.8521 24.5606V24.9861H32.7813V24.5606H29.8521Z" fill="#3F3D56"/>
<path d="M26.936 32.1462L26.6401 32.4471L28.7114 34.5536L29.0073 34.2527L26.936 32.1462Z" fill="#3F3D56"/>
<path d="M19.5999 35.4128H19.1814V38.3919H19.5999V35.4128Z" fill="#3F3D56"/>
<path d="M20.0185 23.9222C19.8374 23.7841 19.6172 23.7094 19.3908 23.7094C19.1644 23.7094 18.9442 23.7841 18.7631 23.9222C18.6392 24.018 18.5371 24.1399 18.4639 24.2797C18.3712 24.4596 18.3311 24.6628 18.3484 24.8652C18.3656 25.0676 18.4395 25.2608 18.5612 25.4219C18.6829 25.5829 18.8475 25.7052 19.0354 25.7742C19.2232 25.8432 19.4266 25.8561 19.6215 25.8113C19.8163 25.7664 19.9945 25.6658 20.1349 25.5214C20.2753 25.3769 20.3721 25.1945 20.4138 24.9958C20.4556 24.7972 20.4406 24.5905 20.3705 24.4002C20.3004 24.21 20.1783 24.0441 20.0185 23.9222H20.0185ZM19.3908 25.4117C19.2245 25.4112 19.0651 25.3438 18.9475 25.2242C18.8299 25.1046 18.7636 24.9425 18.7631 24.7734C18.7639 24.6443 18.8025 24.5183 18.874 24.4116C18.9353 24.3213 19.0185 24.2486 19.1155 24.2006C19.2125 24.1526 19.3201 24.1308 19.4278 24.1374C19.5355 24.144 19.6397 24.1787 19.7303 24.2383C19.8209 24.2978 19.8949 24.3802 19.9451 24.4773C19.9953 24.5744 20.02 24.6831 20.0168 24.7928C20.0137 24.9025 19.9827 25.0095 19.927 25.1034C19.8712 25.1974 19.7926 25.2751 19.6987 25.3291C19.6047 25.3831 19.4987 25.4116 19.3908 25.4117V25.4117Z" fill="#3F3D56"/>
<path d="M21.2739 6.26064H17.5078V10.0909H21.2739V6.26064Z" fill="#3F3D56"/>
<path d="M19.3906 6.899C22.1639 6.899 24.4121 6.08921 24.4121 5.09028C24.4121 4.09136 22.1639 3.28157 19.3906 3.28157C16.6173 3.28157 14.3691 4.09136 14.3691 5.09028C14.3691 6.08921 16.6173 6.899 19.3906 6.899Z" fill="#3F3D56"/>
<path d="M20.0183 16.6873H18.7629V23.9222H20.0183V16.6873Z" fill="#3F3D56"/>
<path d="M39.335 39.0203H0V39.4459H39.335V39.0203Z" fill="#3F3D56"/>
<path d="M26.2106 106.163C26.373 111.819 23.1239 113.891 19.0462 114.012C18.9515 114.015 18.8572 114.017 18.7634 114.017C18.5743 114.019 18.387 114.016 18.2016 114.008C14.5138 113.852 11.5947 111.861 11.4436 106.602C11.2873 101.159 17.9302 94.0865 18.4286 93.5633L18.4295 93.5628C18.4485 93.5429 18.4582 93.5329 18.4582 93.5329C18.4582 93.5329 26.0482 100.508 26.2106 106.163Z" fill="#D0CDE1"/>
<path d="M18.7526 113.155L21.3428 109.238L18.7579 113.577L18.7633 114.017C18.5742 114.019 18.3869 114.016 18.2015 114.008L18.3299 108.341L18.3264 108.298L18.3312 108.289L18.3435 107.754L15.5068 103.565L18.3401 107.353L18.3502 107.466L18.4472 103.185L15.9971 98.8424L18.4542 102.433L18.4285 93.5633L18.4286 93.5338L18.4294 93.5628L18.5921 100.553L20.825 97.7138L18.5994 101.155L18.6481 104.985L20.7029 101.248L18.6557 105.548L18.6828 107.677L21.671 102.471L18.6919 108.42L18.7526 113.155Z" fill="#3F3D56"/>
<path d="M138.994 106.163C139.156 111.819 135.907 113.891 131.83 114.012C131.735 114.015 131.641 114.017 131.547 114.017C131.358 114.019 131.17 114.016 130.985 114.008C127.297 113.852 124.378 111.861 124.227 106.602C124.071 101.159 130.714 94.0865 131.212 93.5633L131.213 93.5628C131.232 93.5429 131.242 93.5329 131.242 93.5329C131.242 93.5329 138.832 100.508 138.994 106.163Z" fill="#D0CDE1"/>
<path d="M131.536 113.155L134.127 109.238L131.542 113.577L131.547 114.017C131.358 114.019 131.171 114.016 130.985 114.008L131.114 108.341L131.11 108.298L131.115 108.289L131.127 107.754L128.291 103.565L131.124 107.353L131.134 107.466L131.231 103.185L128.781 98.8424L131.238 102.433L131.212 93.5633L131.212 93.5338L131.213 93.5628L131.376 100.553L133.609 97.7138L131.383 101.155L131.432 104.985L133.487 101.248L131.439 105.548L131.467 107.677L134.455 102.471L131.476 108.42L131.536 113.155Z" fill="#3F3D56"/>
</svg>
