<svg width="174" height="122" viewBox="0 0 174 122" fill="none" xmlns="http://www.w3.org/2000/svg">
<g clip-path="url(#clip0)">
<path d="M139.733 113.47C138.603 117.767 134.646 120.452 134.646 120.452C134.646 120.452 132.519 116.171 133.649 111.874C134.778 107.577 138.736 104.892 138.736 104.892C138.736 104.892 140.862 109.173 139.733 113.47Z" fill="#3F3D56"/>
<path d="M138.02 112.561C134.856 115.683 134.502 120.449 134.502 120.449C134.502 120.449 139.277 120.153 142.44 117.031C145.604 113.909 145.958 109.143 145.958 109.143C145.958 109.143 141.183 109.439 138.02 112.561Z" fill="#00ADB5"/>
<path d="M23.4035 97.2165H29.3607L44.0412 91.4777C44.0412 91.4777 54.4664 87.2267 53.6153 95.3036C52.7643 103.38 51.275 114.22 51.275 114.22C51.275 114.22 46.5943 112.095 44.0412 112.733C41.488 113.37 43.1901 99.7671 43.1901 99.7671C43.1901 99.7671 22.3397 109.757 20.4248 108.482C18.51 107.206 18.0845 98.2793 18.0845 98.2793L23.4035 97.2165Z" fill="#2F2E41"/>
<path opacity="0.1" d="M23.4035 97.2165H29.3607L44.0412 91.4777C44.0412 91.4777 54.4664 87.2267 53.6153 95.3036C52.7643 103.38 51.275 114.22 51.275 114.22C51.275 114.22 46.5943 112.095 44.0412 112.733C41.488 113.37 43.1901 99.7671 43.1901 99.7671C43.1901 99.7671 22.3397 109.757 20.4248 108.482C18.51 107.206 18.0845 98.2793 18.0845 98.2793L23.4035 97.2165Z" fill="#222831"/>
<path d="M32.7893 78.5789L39.9989 88.9271L56.8069 102.955C56.8069 102.955 72.3383 106.569 70.2107 109.119C68.0831 111.67 55.1048 106.569 55.1048 106.569C55.1048 106.569 35.7437 92.5404 35.1054 91.4777C34.4671 90.4149 27.446 80.4251 27.446 80.4251L32.7893 78.5789Z" fill="#A0616A"/>
<path opacity="0.1" d="M32.7893 78.5789L39.9989 88.9271L56.8069 102.955C56.8069 102.955 72.3383 106.569 70.2107 109.119C68.0831 111.67 55.1048 106.569 55.1048 106.569C55.1048 106.569 35.7437 92.5404 35.1054 91.4777C34.4671 90.4149 27.446 80.4251 27.446 80.4251L32.7893 78.5789Z" fill="black"/>
<path d="M28.5098 70.2227L33.1906 79.3624C33.1906 79.3624 32.1268 83.8259 30.4247 84.251C28.7226 84.6761 21.4888 78.7247 21.4888 78.7247L28.5098 70.2227Z" fill="#D0CDE1"/>
<path opacity="0.1" d="M28.5098 70.2227L33.1906 79.3624C33.1906 79.3624 32.1268 83.8259 30.4247 84.251C28.7226 84.6761 21.4888 78.7247 21.4888 78.7247L28.5098 70.2227Z" fill="black"/>
<path d="M85.6125 92.4843L86.9952 98.1821C87.0106 98.2457 87.0082 98.3122 86.9882 98.3744L80.7163 117.955C80.6914 118.033 80.6407 118.099 80.5726 118.144C80.5045 118.189 80.4231 118.209 80.342 118.201C80.2609 118.193 80.185 118.157 80.127 118.1C80.0689 118.043 80.0322 117.968 80.023 117.887L79.1554 110.259C79.1496 110.208 79.1548 110.157 79.1706 110.108L84.9276 92.4579C84.9516 92.3843 84.999 92.3205 85.0626 92.2762C85.1262 92.2319 85.2026 92.2096 85.28 92.2126C85.3575 92.2156 85.4319 92.2437 85.4919 92.2928C85.5519 92.3418 85.5943 92.4091 85.6125 92.4843Z" fill="#2F2E41"/>
<path d="M85.104 92.9655L86.3805 97.8542L80.8487 115.708L79.5723 110.182L85.104 92.9655Z" fill="#F2F2F2"/>
<path d="M57.2323 119.534C57.4451 120.172 79.3593 119.322 79.5721 119.109C79.7576 118.843 79.9145 118.558 80.0401 118.259C80.2402 117.834 80.4231 117.409 80.4231 117.409L79.5721 110.526L57.8706 109.757C57.8706 109.757 57.328 115.589 57.2174 118.259C57.1898 118.933 57.1898 119.407 57.2323 119.534Z" fill="#2F2E41"/>
<path opacity="0.1" d="M76.8062 111.457L77.2316 117.409H67.6575V111.457H76.8062Z" fill="black"/>
<path opacity="0.1" d="M64.4663 113.37L64.5234 113.359L64.2535 115.921H58.9346V113.37H64.4663Z" fill="black"/>
<path opacity="0.1" d="M57.2323 119.534C57.4451 120.172 79.3593 119.322 79.5721 119.109C79.7576 118.843 79.9145 118.558 80.0401 118.259H57.2174C57.1898 118.933 57.1898 119.407 57.2323 119.534Z" fill="black"/>
<path d="M31.7011 67.247C36.9888 67.247 41.2753 62.9648 41.2753 57.6823C41.2753 52.3999 36.9888 48.1176 31.7011 48.1176C26.4135 48.1176 22.127 52.3999 22.127 57.6823C22.127 62.9648 26.4135 67.247 31.7011 67.247Z" fill="#A0616A"/>
<path d="M31.0628 66.1843C31.0628 66.1843 27.8714 71.7106 27.2331 74.6863C26.5949 77.662 17.6589 68.7349 17.6589 68.7349L16.4888 65.6529C16.4888 65.6529 24.8928 61.7208 24.2545 58.5325C23.6162 55.3443 31.0628 66.1843 31.0628 66.1843Z" fill="#A0616A"/>
<path d="M32.765 82.7632L41.4881 94.2408L62.3386 109.757C62.3386 109.757 77.4445 112.945 74.0403 115.283C70.6362 117.621 60.8492 113.158 60.8492 113.158C60.8492 113.158 39.786 101.893 35.3181 97.2165C30.8501 92.5405 22.5525 84.6761 22.5525 84.6761L32.765 82.7632Z" fill="#A0616A"/>
<path d="M21.0633 100.617L23.6164 104.656L38.8537 99.8667C42.1969 98.8159 45.863 99.2026 48.8284 101.069C51.4879 102.743 53.19 105.4 49.3603 109.332C41.701 117.196 36.5948 112.945 36.5948 112.945C36.5948 112.945 10.8508 125.06 6.59563 119.109C2.34044 113.158 2.12769 110.182 2.12769 110.182C2.12769 110.182 18.5102 99.9796 21.0633 100.617Z" fill="#222831"/>
<path d="M52.9772 114.646C52.9772 114.646 59.7855 119.109 51.7007 121.235C43.6158 123.36 37.6585 120.384 37.6585 120.384C37.6585 120.384 30.6375 120.384 30.6375 116.771C30.6375 113.158 32.9778 112.733 32.9778 112.733L40.2116 113.795C40.2116 113.795 48.9348 111.457 52.9772 114.646Z" fill="#D0CDE1"/>
<path d="M39.5554 55.2763C40.207 55.5665 40.8532 55.91 41.5617 55.9942C42.2701 56.0785 43.0769 55.8313 43.4121 55.2022C43.5932 54.8623 43.6139 54.4626 43.6223 54.0777C43.648 52.9106 43.5635 51.6488 42.8231 50.7455C42.3519 50.1707 41.6641 49.8083 41.1764 49.2474C40.827 48.8456 40.5944 48.3585 40.344 47.8886C39.3954 46.1089 37.991 44.3985 36.0392 43.8854C35.2242 43.6711 34.3692 43.6816 33.5265 43.6935L28.6112 43.7627C27.8158 43.7739 27.0081 43.787 26.2467 44.017C24.6646 44.4948 23.5127 45.824 22.4577 47.095C21.6684 48.046 20.877 49.0067 20.2846 50.0911C19.4354 51.6735 19.0059 53.4468 19.0372 55.2421C19.0307 55.7025 19.0902 56.1615 19.2139 56.6051C19.3587 57.0119 19.5381 57.4055 19.7502 57.7818C20.672 59.5905 21.2193 61.8497 20.1812 63.5944C21.9845 62.8585 23.7687 61.8937 24.9582 60.3527C25.4903 59.6633 25.9077 58.8563 26.6169 58.3504C27.326 57.8445 28.4816 57.8007 28.9366 58.5431C29.093 58.8434 29.1735 59.1774 29.1712 59.516C29.2044 60.0733 29.2035 60.652 29.44 61.1578C29.6765 61.6636 30.2399 62.0718 30.7778 61.9204C31.7042 61.6597 31.6155 60.2394 32.329 59.5942C32.8708 59.1042 33.7068 59.1979 34.4029 58.9755C35.2139 58.7163 35.8225 58.0144 36.1693 57.2374C36.4328 56.6468 36.429 55.1013 36.9278 54.7815C37.5532 54.3804 38.9756 55.0181 39.5554 55.2763Z" fill="#222831"/>
<path d="M15.7289 64.6447C16.1596 64.5299 16.613 64.531 17.0432 64.648C18.4089 65.0143 21.4705 65.984 22.127 67.4596C22.978 69.3725 25.9567 72.3482 25.9567 72.3482C25.9567 72.3482 29.9991 76.3867 29.1481 79.1498C28.297 81.9129 25.1056 85.1012 25.1056 85.1012C25.1056 85.1012 25.9567 98.2792 21.7015 101.68C17.4463 105.081 15.7442 102.743 15.7442 105.931C15.7442 109.119 2.55312 119.109 0 112.945C0 112.945 1.27656 101.467 0.851039 97.429C0.431656 93.4488 1.04561 68.6159 15.7289 64.6447Z" fill="#D0CDE1"/>
<path d="M22.5524 70.0102C22.5524 70.0102 35.5307 79.5749 33.1904 83.6133C33.1904 83.6133 25.3183 87.4392 23.6162 87.2267C21.9141 87.0141 15.3186 79.5749 13.6165 78.9372C11.9144 78.2996 11.0634 66.8219 22.5524 70.0102Z" fill="#D0CDE1"/>
<path d="M80.5371 48.8592C86.342 48.8592 91.0477 44.1582 91.0477 38.3591C91.0477 32.56 86.342 27.8589 80.5371 27.8589C74.7323 27.8589 70.0266 32.56 70.0266 38.3591C70.0266 44.1582 74.7323 48.8592 80.5371 48.8592Z" fill="#EEEEEE"/>
<path d="M167.349 24.7223H108.449V12.4097H167.349V24.7223ZM108.709 24.4631H167.089V12.6689H108.709V24.4631Z" fill="#EEEEEE"/>
<path d="M163.067 14.8723H104.428V26.9256H163.067V14.8723Z" fill="#00ADB5"/>
<path d="M67.6182 3.11053C67.4129 3.11053 67.2123 3.04972 67.0416 2.93579C66.8709 2.82186 66.7379 2.65992 66.6593 2.47046C66.5808 2.28101 66.5602 2.07253 66.6003 1.8714C66.6403 1.67027 66.7392 1.48553 66.8843 1.34052C67.0295 1.19551 67.2144 1.09676 67.4157 1.05676C67.617 1.01675 67.8257 1.03728 68.0154 1.11576C68.205 1.19424 68.3671 1.32713 68.4812 1.49764C68.5952 1.66815 68.6561 1.86861 68.6561 2.07368C68.6557 2.34857 68.5463 2.61211 68.3517 2.80649C68.1572 3.00087 67.8934 3.11021 67.6182 3.11053ZM67.6182 1.29605C67.4642 1.29605 67.3137 1.34165 67.1857 1.4271C67.0577 1.51255 66.958 1.634 66.899 1.77609C66.8401 1.91819 66.8247 2.07454 66.8547 2.22539C66.8848 2.37624 66.9589 2.5148 67.0678 2.62355C67.1766 2.73231 67.3153 2.80637 67.4663 2.83637C67.6173 2.86638 67.7738 2.85098 67.9161 2.79212C68.0583 2.73326 68.1799 2.63359 68.2654 2.50571C68.3509 2.37783 68.3966 2.22748 68.3966 2.07368C68.3964 1.86751 68.3143 1.66986 68.1683 1.52407C68.0224 1.37829 67.8246 1.29629 67.6182 1.29605Z" fill="#EEEEEE"/>
<path d="M70.7317 3.11053C70.5264 3.11053 70.3258 3.04972 70.1551 2.93579C69.9844 2.82186 69.8514 2.65992 69.7729 2.47046C69.6943 2.28101 69.6737 2.07253 69.7138 1.8714C69.7538 1.67027 69.8527 1.48553 69.9978 1.34052C70.143 1.19551 70.3279 1.09676 70.5292 1.05676C70.7306 1.01675 70.9393 1.03728 71.1289 1.11576C71.3185 1.19424 71.4806 1.32713 71.5947 1.49764C71.7087 1.66815 71.7696 1.86861 71.7696 2.07368C71.7693 2.34857 71.6598 2.61211 71.4653 2.80649C71.2707 3.00087 71.0069 3.11021 70.7317 3.11053ZM70.7317 1.29605C70.5778 1.29605 70.4273 1.34165 70.2993 1.4271C70.1713 1.51255 70.0715 1.634 70.0126 1.77609C69.9537 1.91819 69.9382 2.07454 69.9683 2.22539C69.9983 2.37624 70.0724 2.5148 70.1813 2.62355C70.2902 2.73231 70.4289 2.80637 70.5799 2.83637C70.7309 2.86638 70.8874 2.85098 71.0296 2.79212C71.1718 2.73326 71.2934 2.63359 71.3789 2.50571C71.4645 2.37783 71.5101 2.22748 71.5101 2.07368C71.5099 1.86751 71.4278 1.66986 71.2819 1.52407C71.1359 1.37829 70.9381 1.29629 70.7317 1.29605Z" fill="#EEEEEE"/>
<path d="M73.8455 3.11052C73.6402 3.11053 73.4396 3.04972 73.2689 2.93579C73.0982 2.82186 72.9652 2.65992 72.8866 2.47047C72.8081 2.28101 72.7875 2.07253 72.8276 1.8714C72.8676 1.67027 72.9665 1.48553 73.1116 1.34052C73.2567 1.19551 73.4417 1.09677 73.643 1.05676C73.8443 1.01675 74.053 1.03728 74.2427 1.11576C74.4323 1.19424 74.5944 1.32713 74.7085 1.49764C74.8225 1.66815 74.8834 1.86861 74.8834 2.07368C74.883 2.34857 74.7736 2.61211 74.579 2.80649C74.3845 3.00086 74.1207 3.11021 73.8455 3.11052ZM73.8455 1.29605C73.6915 1.29605 73.541 1.34165 73.413 1.4271C73.285 1.51255 73.1853 1.634 73.1263 1.77609C73.0674 1.91819 73.052 2.07454 73.082 2.22539C73.1121 2.37623 73.1862 2.5148 73.2951 2.62355C73.4039 2.7323 73.5426 2.80637 73.6936 2.83637C73.8446 2.86638 74.0011 2.85098 74.1434 2.79212C74.2856 2.73326 74.4072 2.63359 74.4927 2.50571C74.5782 2.37783 74.6239 2.22748 74.6239 2.07368C74.6237 1.86751 74.5416 1.66986 74.3956 1.52408C74.2497 1.37829 74.0519 1.29629 73.8455 1.29605Z" fill="#EEEEEE"/>
<path d="M67.3588 3.36975C67.8604 3.36975 68.267 2.96356 68.267 2.4625C68.267 1.96144 67.8604 1.55525 67.3588 1.55525C66.8573 1.55525 66.4507 1.96144 66.4507 2.4625C66.4507 2.96356 66.8573 3.36975 67.3588 3.36975Z" fill="#00ADB5"/>
<path d="M70.4724 3.36975C70.9739 3.36975 71.3805 2.96356 71.3805 2.4625C71.3805 1.96144 70.9739 1.55525 70.4724 1.55525C69.9708 1.55525 69.5642 1.96144 69.5642 2.4625C69.5642 2.96356 69.9708 3.36975 70.4724 3.36975Z" fill="#00ADB5"/>
<path d="M73.5859 3.36975C74.0874 3.36975 74.494 2.96356 74.494 2.4625C74.494 1.96144 74.0874 1.55525 73.5859 1.55525C73.0843 1.55525 72.6777 1.96144 72.6777 2.4625C72.6777 2.96356 73.0843 3.36975 73.5859 3.36975Z" fill="#00ADB5"/>
<path d="M174 71.0239H64.7642V0H174V71.0239ZM65.0236 70.7647H173.741V0.259212H65.0236V70.7647Z" fill="#EEEEEE"/>
<path d="M173.87 3.93158H64.8938V4.19079H173.87V3.93158Z" fill="#EEEEEE"/>
<path d="M99.2377 4.06119H98.9783V70.9948H99.2377V4.06119Z" fill="#EEEEEE"/>
<path d="M131.607 38.3957H112.277V35.5443H131.607V38.3957ZM112.536 38.1365H131.347V35.8036H112.536V38.1365Z" fill="#EEEEEE"/>
<path d="M131.607 58.4846H112.277V55.6332H131.607V58.4846ZM112.536 58.2254H131.347V55.8925H112.536V58.2254Z" fill="#EEEEEE"/>
<path d="M161.64 48.4401H112.342V45.5888H161.64V48.4401ZM112.601 48.1809H161.381V45.848H112.601V48.1809Z" fill="#EEEEEE"/>
<path d="M161.575 38.3957H142.245V35.5443H161.575V38.3957ZM142.505 38.1365H161.316V35.8036H142.505V38.1365Z" fill="#EEEEEE"/>
<path d="M82.3158 46.113C80.205 46.113 78.1416 45.4877 76.3866 44.3162C74.6316 43.1447 73.2637 41.4796 72.4559 39.5314C71.6482 37.5832 71.4368 35.4395 71.8486 33.3714C72.2604 31.3032 73.2768 29.4035 74.7694 27.9124C76.2619 26.4214 78.1635 25.4059 80.2337 24.9945C82.3039 24.5832 84.4498 24.7943 86.3999 25.6013C88.35 26.4082 90.0167 27.7747 91.1894 29.528C92.3621 31.2814 92.988 33.3427 92.988 35.4514C92.9848 38.278 91.8594 40.988 89.8587 42.9868C87.8579 44.9855 85.1453 46.1098 82.3158 46.113ZM82.3158 25.1128C80.269 25.1128 78.2681 25.7191 76.5663 26.8551C74.8644 27.9911 73.538 29.6058 72.7547 31.4949C71.9714 33.3841 71.7665 35.4628 72.1658 37.4683C72.5651 39.4738 73.5508 41.316 74.9981 42.7619C76.4454 44.2077 78.2894 45.1924 80.2968 45.5913C82.3043 45.9902 84.3851 45.7855 86.2761 45.003C88.1671 44.2205 89.7834 42.8954 90.9205 41.1952C92.0577 39.495 92.6646 37.4961 92.6646 35.4514C92.6615 32.7103 91.5702 30.0825 89.6301 28.1443C87.69 26.2061 85.0595 25.1159 82.3158 25.1128Z" fill="#EEEEEE"/>
<path d="M166.723 120.26H120.962V120.583H166.723V120.26Z" fill="#00ADB5"/>
<path d="M130.439 36.97H111.368V39.5621H130.439V36.97Z" fill="#00ADB5"/>
<path d="M160.408 36.97H141.337V39.5621H160.408V36.97Z" fill="#00ADB5"/>
<path d="M130.439 57.0589H111.368V59.651H130.439V57.0589Z" fill="#00ADB5"/>
<path d="M160.473 46.7552H111.433V49.3474H160.473V46.7552Z" fill="#00ADB5"/>
</g>
<defs>
<clipPath id="clip0">
<rect width="174" height="122" fill="white"/>
</clipPath>
</defs>
</svg>
